<svg width="1920" height="688" viewBox="0 0 1920 688" xmlns="http://www.w3.org/2000/svg"><title>banner-wave-3</title><defs><linearGradient x1="97.741%" y1="50%" x2="4.315%" y2="72.104%" id="a"><stop stop-color="#EEE" stop-opacity=".4" offset="0%"/><stop stop-color="#FFF" offset="100%"/></linearGradient></defs><path d="M-37.57 198.491s210.515-37 255.766 41.5c45.25 78.5-71.812 132.5-22.134 205.5s154.443-38.5 205.596-6c51.154 32.5-25.576 139 20.658 161 46.235 22 215.434-199.5 333.48-171.5 118.046 28 104.274 117.5 170.183 117.5 65.909 0 194.283-150 271.013-150 76.73 0-37.38 167.5 63.942 167.5s36.397-162.712 114.11-148.212c77.714 14.5 9.532 184.712 197.956 184.712 188.424 0 164-362.491 231-309.491s49 124.779 82-41c114.09-573.143 113 556 113 556H-37.574l.004-607.509z" transform="translate(0 -118)" fill="url(#a)" fill-rule="evenodd" opacity=".04"/></svg>